<?xml version="1.0" ?>
<svg viewBox="0 0 24 24" xmlns="http://www.w3.org/2000/svg">
    <defs>
        <style>
            .cls-1,
            .cls-2 {
                fill: none;
            }

            .cls-2 {
                stroke: #000;
                stroke-linecap: round;
                stroke-linejoin: round;
            }
        </style>
    </defs>
    <g data-name="Layer 2" id="Layer_2">
        <g id="Workspace">
            <rect class="cls-1" height="24" width="24" />
            <rect class="cls-2" height="4" rx="2" width="14" x="5" y="15" />
            <path class="cls-2" d="M18.91,16.37,17.14,5.83a1,1,0,0,0-1-.83H7.85a1,1,0,0,0-1,.83L5.09,16.37" />
            <line class="cls-2" x1="9" x2="7" y1="17" y2="17" />
            <line class="cls-2" x1="17" x2="17" y1="17" y2="17" />
            <circle class="cls-2" cx="11" cy="9" r="1" />
            <circle class="cls-2" cx="13" cy="10" r="1" />
            <path class="cls-2"
                d="M11,10h0a1.5,1.5,0,0,1,1.5,1.5V13a0,0,0,0,1,0,0h-3a0,0,0,0,1,0,0V11.5A1.5,1.5,0,0,1,11,10Z" />
            <path class="cls-2" d="M12.5,13h2v-.5A1.5,1.5,0,0,0,13,11h0" />
        </g>
    </g>
</svg>